<?xml version="1.0" encoding="utf-8"?>
<!-- Generator: Adobe Illustrator 26.0.1, SVG Export Plug-In . SVG Version: 6.00 Build 0)  -->
<svg version="1.1" id="Calque_1" xmlns="http://www.w3.org/2000/svg" xmlns:xlink="http://www.w3.org/1999/xlink" x="0px" y="0px"
	 viewBox="0 0 512 512" style="enable-background:new 0 0 512 512;" xml:space="preserve">
<style type="text/css">
	.st0{fill:#FFFFFF;}
</style>
<path class="st0" d="M256,23.9c-1.2,1.4-2.3,2.9-3.4,4.3l-19,146.5c5.9,4.3,14,6.9,22.4,6.9s16.5-2.6,22.4-6.9l-19-146.5
	C258.3,26.8,257.2,25.3,256,23.9z M52.2,83c2.6,4.8,5.4,10.1,8.1,15.8c9.7,20.7,19.5,45.6,12.3,66.7c-4.9,14.3-18.8,21.8-30.8,27.9
	c-4.1,2.1-7.9,3.8-11.4,5.2c2.9,4,6.2,8.7,9.6,14.2c8.5,13.6,17.6,29.8,17,46c-0.8,19.9-14,40-26.2,56.6c-1.3,1.8-2.5,3.3-3.8,5
	c14-4.2,27.9-7.6,41.1-8.9c16.8-1.6,33.4,0.8,46.5,10c1.4-1.5,2.9-2.9,4.5-4.1c0-10,0.1-22.1,1-35.4c-12-1.3-21.9-1.4-32.5,6.5
	l-7.2,5.4l-10.8-14.4l7.2-5.4c11.6-8.7,23.7-10.8,34.8-10.6c0.7,0,1.5,0,2.2,0.1c2.7,0.1,5.4,0.3,8,0.6c1-8.1,2.4-16.3,4.4-24.5
	c-14.2-9.9-35.1-20.4-54.9-20.9l-9-0.2l0.5-18l9,0.2c22.8,0.6,43.9,10.1,59.8,20.5c2.5-7.1,5.6-14,9.2-20.6
	c-13.4-16-31.3-34.8-44.9-42.3l-7.9-4.4l8.7-15.8l7.9,4.4c16.8,9.3,33.7,26.7,46.9,42.4c3.4-4,7.1-7.8,11.2-11.3
	c0.5-0.4,1-0.8,1.5-1.2C135.3,137.9,94,100.9,52.2,83L52.2,83z M459.8,83c-41.8,17.9-83.1,54.9-112,89.8c0.5,0.4,1,0.8,1.5,1.2
	c4.1,3.4,7.9,7.2,11.2,11.3c13.2-15.7,30.1-33.2,46.9-42.4l7.9-4.4l8.7,15.8l-7.9,4.4c-13.6,7.5-31.5,26.3-44.9,42.3
	c3.7,6.6,6.7,13.5,9.2,20.6c15.8-10.4,37-19.9,59.8-20.5l9-0.2l0.5,18l-9,0.2c-19.7,0.5-40.7,11-54.9,20.9
	c1.9,8.2,3.4,16.4,4.4,24.5c2.6-0.3,5.2-0.5,8-0.6c0.7,0,1.5,0,2.2-0.1c11.2-0.1,23.2,1.9,34.8,10.6l7.2,5.4l-10.8,14.4l-7.2-5.4
	c-10.6-7.9-20.5-7.8-32.5-6.5c0.9,13.3,1,25.4,1,35.4c1.6,1.2,3.1,2.6,4.5,4.1c13.1-9.2,29.6-11.6,46.5-10c13.2,1.3,27,4.7,41.1,8.9
	c-1.3-1.7-2.5-3.2-3.8-5c-12.2-16.6-25.4-36.8-26.2-56.6c-0.6-16.2,8.6-32.5,17-46c3.4-5.5,6.7-10.2,9.6-14.2
	c-3.5-1.5-7.3-3.1-11.4-5.2c-11.9-6.1-25.9-13.7-30.8-27.9c-7.2-21.1,2.5-46,12.3-66.7C454.4,93.1,457.2,87.8,459.8,83L459.8,83z
	 M225.6,96.5c-1.2,2.4-2.4,4.8-3.6,7.2c-10,19.7-20.5,38.7-30.8,54.8c8.2-2.6,17.1-4.2,26.9-4.7L225.6,96.5z M286.4,96.5l7.4,57.2
	c9.8,0.5,18.8,2.1,26.9,4.7c-10.3-16.1-20.8-35.1-30.8-54.8C288.8,101.3,287.6,98.9,286.4,96.5L286.4,96.5z M215.8,171.9
	c-18,1.4-31.2,7.2-41.5,15.9c-11.9,9.9-20.1,23.9-25.8,39.8c-9.6,27.2-11.1,59.2-11.4,83c2.1-0.3,4.1-0.5,6.2-0.5
	c6.4,0,12.7,1.2,18.6,3.2c11.8,4.1,22.8,11.2,33.5,18.5c21.5,14.7,42.3,29.8,60.6,29.8s39.1-15.1,60.6-29.8
	c10.7-7.3,21.7-14.4,33.5-18.5c7.8-2.7,16.3-3.9,24.8-2.7c-0.2-23.8-1.8-55.8-11.4-83c-5.6-16-13.9-29.9-25.8-39.8
	c-10.4-8.6-23.6-14.5-41.5-15.9l1.3,9.9l-3.1,3.1c-10.1,10.1-24.4,14.6-38.4,14.6s-28.2-4.5-38.4-14.6l-3.1-3.1L215.8,171.9z
	 M188.2,217.2c0.6,0,1.2,0,1.7,0c1.3,0.1,2.7,0.3,4.2,0.6c18.6,4.4,30.3,22.6,39.5,38.6c9.2,16,14.9,31,14.9,31l3.2,8.4l-16.3,6.2
	c1.6,1.5,3.1,3,4.7,4.6c-16,16-64,0-80-16c0-16,0-32,16-32c12.8,0,45.5,30.2,58.4,42.6l-2.8-7.4c0,0-5.3-13.9-13.7-28.4
	c-8.3-14.5-20.6-28.3-28-30c-0.2,0-7.5,1.8-13.3,5.7c-5.9,3.9-10.5,8.2-10.5,8.2l-6.6,6.1l-12.2-13.3l6.6-6.1c0,0,5.5-5.1,12.8-9.9
	C172.6,222.1,179.6,217.3,188.2,217.2L188.2,217.2z M323.8,217.2c8.6,0.1,15.6,4.9,21.5,8.9c7.2,4.8,12.8,9.9,12.8,9.9l6.6,6.1
	l-12.2,13.3l-6.6-6.1c0,0-4.7-4.3-10.5-8.2c-5.9-3.9-13.1-5.8-13.3-5.7c-7.4,1.7-19.7,15.5-28,30c-8.3,14.5-13.7,28.4-13.7,28.4
	l-2.8,7.4c12.9-12.4,45.6-42.6,58.4-42.6c16,0,16,16,16,32c-16,16-64,32-80,16c0,0,2-2,4.7-4.6l-16.3-6.2l3.2-8.4
	c0,0,5.7-15,14.9-31c9.2-16,20.9-34.2,39.5-38.6c1.4-0.3,2.8-0.5,4.2-0.6C322.7,217.2,323.3,217.2,323.8,217.2L323.8,217.2z
	 M240,316.6v22h-16L240,316.6z M272,316.6l16,22h-16V316.6z M143.6,328c-3.9,0-7.7,0.9-11.7,2.8c-4.4,2.1-7.8,7.2-9.8,14.7
	c-2,7.5-2.2,16.7-1.1,23.9c6.3,42.1,37.4,85.9,75.2,105.3c35,18,84.8,18,119.8,0c37.8-19.5,68.9-63.2,75.2-105.3
	c1.1-7.1,0.9-16.4-1.1-23.9c-2-7.5-5.5-12.6-9.8-14.7c-7.9-3.8-15.2-3.5-24.1-0.4c-8.9,3.1-18.8,9.2-29.3,16.3
	c-20.8,14.2-43.5,32.9-70.7,32.9s-49.9-18.7-70.7-32.9c-10.4-7.1-20.4-13.3-29.3-16.3C151.6,328.8,147.5,327.9,143.6,328L143.6,328z
	 M151,356l12,6l13,32.5l16-18.2c5.9,2.9,11.4,5.4,16.4,7.7l11.5,18.6l6.4-11.2c11.5,4.2,20.8,6.2,29.8,6.2c9,0,18.3-2,29.8-6.2
	l6.4,11.2l11.5-18.6c5-2.3,10.5-4.8,16.4-7.7l16,18.2l13-32.5l12-6v14.6c0,11-4.7,23.8-13.5,37c-5.5,8.3-12.2,15.8-19.9,22.2
	l-7.6-15.2L298.4,447c-4.8,1.9-9.7,3.6-14.8,4.9l-6.2-21.3l-13.8,24.6c-5.1,0.4-10.2,0.4-15.2,0l-13.8-24.6l-6.2,21.3
	c-5-1.3-10-2.9-14.8-4.9L192,414.6l-7.6,15.2c-7.7-6.4-14.4-13.9-19.9-22.2c-8.8-13.2-13.5-26-13.5-37V356z"/>
</svg>
