<?xml version="1.0" encoding="utf-8"?>
<!-- Generator: Adobe Illustrator 26.0.1, SVG Export Plug-In . SVG Version: 6.00 Build 0)  -->
<svg version="1.1" id="Calque_1" xmlns="http://www.w3.org/2000/svg" xmlns:xlink="http://www.w3.org/1999/xlink" x="0px" y="0px"
	 viewBox="0 0 512 512" style="enable-background:new 0 0 512 512;" xml:space="preserve">
<style type="text/css">
	.st0{fill:#FFFFFF;}
</style>
<g transform="translate(0,0)">
	<path class="st0" d="M267.9,330.5h-23.8L232,289.6l-63.8-19.8l1,39.4l41.9,47.3l16.1-14.3L239.4,484L130.2,361.8l19.4-58.2
		l-10.4-125.2l23.1-9.8c18.4,71.3,73.1,96.4,73.1,96.4l20.6-28.9l20.6,28.9c0,0,54.7-25.1,73.1-96.4l23.1,9.8l-10.4,125.2l19.4,58.2
		L272.6,484l12.2-141.8l16.1,14.3l41.9-47.3l1-39.4L280,289.6L267.9,330.5z M393.7,395.3L318.9,472l56.8-28l6.1,24l51.6-36
		L393.7,395.3z M118.3,395.3l74.8,76.7l-56.8-28l-6.1,24l-51.6-36L118.3,395.3z M384.8,277.6L486,219.3
		C506,31,432.4,18.7,360.5,58.7c0,0,114.1-27.7,66.1,109.4l-35.8,14.7L384.8,277.6z M127.2,277.6L26,219.3
		C6,31,79.6,18.7,151.5,58.7c0,0-114.1-27.7-66.1,109.4l35.8,14.7L127.2,277.6z M256,125.9l67.5,41.8c0,0-3.2,35-42.4,64.7
		L256,180.7l-25.1,51.7c-39.2-29.7-42.4-64.7-42.4-64.7L256,125.9z"/>
</g>
</svg>
